<?xml version="1.0" standalone="no"?><!DOCTYPE svg PUBLIC "-//W3C//DTD SVG 1.1//EN" "http://www.w3.org/Graphics/SVG/1.1/DTD/svg11.dtd"><svg t="1682141787585" class="icon" viewBox="0 0 1280 1024" version="1.1" xmlns="http://www.w3.org/2000/svg" p-id="6879" xmlns:xlink="http://www.w3.org/1999/xlink" width="80" height="64"><path d="M21.333333 520.533333v200.533334C145.066667 896 375.466667 1015.466667 640 1015.466667c264.533333 0 494.933333-119.466667 618.666667-294.4v-200.533334c-123.733333 174.933333-354.133333 294.4-618.666667 294.4S145.066667 695.466667 21.333333 520.533333zM418.133333 307.2V106.666667c0-55.466667-42.666667-98.133333-98.133333-98.133334-55.466667 0-98.133333 42.666667-98.133333 98.133334v200.533333c0 55.466667 42.666667 98.133333 98.133333 98.133333s98.133333-42.666667 98.133333-98.133333z" fill="#4B6EA4" p-id="6880"></path><path d="M1058.133333 307.2V106.666667c0-55.466667-42.666667-98.133333-98.133333-98.133334-55.466667 0-98.133333 42.666667-98.133333 98.133334v200.533333c0 55.466667 42.666667 98.133333 98.133333 98.133333 51.2 4.266667 98.133333-42.666667 98.133333-98.133333z" fill="#F4A300" p-id="6881"></path></svg>